<svg id="Capa_1" enable-background="new 0 0 510 510" height="512" viewBox="0 0 510 510" width="512" xmlns="http://www.w3.org/2000/svg" xmlns:xlink="http://www.w3.org/1999/xlink"><linearGradient id="SVGID_1_" gradientUnits="userSpaceOnUse" x1="255" x2="255" y1="34" y2="380.509"><stop offset="0" stop-color="#ff637b"/><stop offset="1" stop-color="#e63950"/></linearGradient><linearGradient id="lg1"><stop offset="0" stop-color="#e63950" stop-opacity="0"/><stop offset=".0467" stop-color="#e4354b" stop-opacity=".047"/><stop offset=".4669" stop-color="#d31822" stop-opacity=".467"/><stop offset=".7991" stop-color="#c90709" stop-opacity=".799"/><stop offset="1" stop-color="#c50000"/></linearGradient><linearGradient id="SVGID_2_" gradientUnits="userSpaceOnUse" x1="255" x2="255" xlink:href="#lg1" y1="347.573" y2="451.458"/><linearGradient id="SVGID_3_" gradientUnits="userSpaceOnUse" x1="196.731" x2="9.267" xlink:href="#lg1" y1="301.023" y2="113.559"/><linearGradient id="lg2"><stop offset="0" stop-color="#ffda2d"/><stop offset="1" stop-color="#fdbf00"/></linearGradient><linearGradient id="SVGID_4_" gradientUnits="userSpaceOnUse" x1="84.074" x2="115.904" xlink:href="#lg2" y1="188.324" y2="220.154"/><linearGradient id="lg3"><stop offset="0" stop-color="#ff9100" stop-opacity="0"/><stop offset="1" stop-color="#ff9100"/></linearGradient><linearGradient id="SVGID_5_" gradientUnits="userSpaceOnUse" x1="119.736" x2="48.523" xlink:href="#lg3" y1="194.662" y2="194.662"/><linearGradient id="SVGID_6_" gradientUnits="userSpaceOnUse" x1="91.781" x2="108.115" xlink:href="#lg3" y1="204.787" y2="151.453"/><linearGradient id="SVGID_7_" gradientUnits="userSpaceOnUse" x1="106.519" x2="79.852" xlink:href="#lg3" y1="209.076" y2="150.743"/><linearGradient id="SVGID_8_" gradientUnits="userSpaceOnUse" x1="227.435" x2="160.756" xlink:href="#lg1" y1="164.212" y2="97.532"/><linearGradient id="SVGID_9_" gradientUnits="userSpaceOnUse" x1="189.094" x2="202.346" xlink:href="#lg2" y1="125.853" y2="139.105"/><linearGradient id="SVGID_10_" gradientUnits="userSpaceOnUse" x1="203.941" x2="174.293" xlink:href="#lg3" y1="128.492" y2="128.492"/><linearGradient id="SVGID_11_" gradientUnits="userSpaceOnUse" x1="192.303" x2="199.103" xlink:href="#lg3" y1="132.707" y2="110.503"/><linearGradient id="SVGID_12_" gradientUnits="userSpaceOnUse" x1="198.439" x2="187.336" xlink:href="#lg3" y1="134.493" y2="110.207"/><linearGradient id="SVGID_13_" gradientUnits="userSpaceOnUse" x1="266.292" x2="199.612" xlink:href="#lg1" y1="227" y2="160.32"/><linearGradient id="SVGID_14_" gradientUnits="userSpaceOnUse" x1="227.95" x2="241.202" xlink:href="#lg2" y1="188.641" y2="201.893"/><linearGradient id="SVGID_15_" gradientUnits="userSpaceOnUse" x1="242.797" x2="213.149" xlink:href="#lg3" y1="191.28" y2="191.28"/><linearGradient id="SVGID_16_" gradientUnits="userSpaceOnUse" x1="231.159" x2="237.959" xlink:href="#lg3" y1="195.495" y2="173.29"/><linearGradient id="SVGID_17_" gradientUnits="userSpaceOnUse" x1="237.295" x2="226.193" xlink:href="#lg3" y1="197.281" y2="172.995"/><linearGradient id="SVGID_18_" gradientUnits="userSpaceOnUse" x1="249.337" x2="182.657" xlink:href="#lg1" y1="295.603" y2="228.923"/><linearGradient id="SVGID_19_" gradientUnits="userSpaceOnUse" x1="210.995" x2="224.247" xlink:href="#lg2" y1="257.244" y2="270.496"/><linearGradient id="SVGID_20_" gradientUnits="userSpaceOnUse" x1="225.842" x2="196.194" xlink:href="#lg3" y1="259.883" y2="259.883"/><linearGradient id="SVGID_21_" gradientUnits="userSpaceOnUse" x1="214.204" x2="221.004" xlink:href="#lg3" y1="264.098" y2="241.893"/><linearGradient id="SVGID_22_" gradientUnits="userSpaceOnUse" x1="220.34" x2="209.237" xlink:href="#lg3" y1="265.884" y2="241.597"/><linearGradient id="SVGID_23_" gradientUnits="userSpaceOnUse" x1="199.24" x2="132.56" xlink:href="#lg1" y1="355.309" y2="288.629"/><linearGradient id="SVGID_24_" gradientUnits="userSpaceOnUse" x1="160.899" x2="174.151" xlink:href="#lg2" y1="316.95" y2="330.202"/><linearGradient id="SVGID_25_" gradientUnits="userSpaceOnUse" x1="175.746" x2="146.098" xlink:href="#lg3" y1="319.588" y2="319.588"/><linearGradient id="SVGID_26_" gradientUnits="userSpaceOnUse" x1="164.108" x2="170.908" xlink:href="#lg3" y1="323.804" y2="301.599"/><linearGradient id="SVGID_27_" gradientUnits="userSpaceOnUse" x1="170.243" x2="159.141" xlink:href="#lg3" y1="325.589" y2="301.303"/><g><g><path d="m498.797 71.017c-158.238-58.79-317.875 63.17-476.175 12.873-11.193-3.557-22.622 4.74-22.622 16.485v322.398c0 7.206 4.447 13.702 11.203 16.212 158.233 58.788 317.872-63.174 476.174-12.873 11.194 3.557 22.623-4.74 22.623-16.485 0-107.466 0-214.932 0-322.397 0-7.208-4.448-13.704-11.203-16.213z" fill="url(#SVGID_1_)"/><path d="m0 308.375v114.397c0 7.206 4.447 13.702 11.203 16.212 158.233 58.788 317.872-63.174 476.174-12.873 11.194 3.557 22.623-4.74 22.623-16.485 0-33.75 0-67.5 0-101.251z" fill="url(#SVGID_2_)"/></g><path d="m395.68 413.702-236.312-236.312c-1.902-3.66-5.433-5.511-10.168-6.199l-10.046-1.605-28.292-27.442c-5.175-9.868-18.445-9.767-23.422.316l-8.604 17.434c-1.997 4.047-6.859 7.853-11.325 8.502l-19.239 2.796c-11.247 1.634-14.737 13.455-6.599 21.388l14.39 15.296c2.178 2.972 4.109 7.718 3.475 11.412l-3.286 19.162c-1.09 6.357 1.226 11.854 6.136 14.456l183.534 183.534c49.942-10.569 99.89-21.795 149.758-22.738z" fill="url(#SVGID_3_)"/><g><path d="m111.032 142.46 8.604 17.434c1.997 4.047 5.858 6.852 10.324 7.501l19.239 2.796c11.247 1.634 15.738 15.456 7.6 23.389l-13.922 13.57c-3.232 3.15-4.707 7.689-3.944 12.137l3.286 19.162c1.921 11.202-9.836 19.744-19.896 14.455l-17.208-9.047c-3.995-2.1-8.767-2.1-12.762 0l-17.208 9.047c-10.06 5.289-21.817-3.254-19.896-14.455l3.286-19.162c.763-4.448-.712-8.987-3.944-12.137l-13.922-13.57c-8.138-7.933-3.648-21.755 7.6-23.389l19.239-2.796c4.466-.649 8.327-3.454 10.324-7.501l8.604-17.434c5.034-10.192 19.566-10.192 24.596 0z" fill="url(#SVGID_4_)"/><path d="m105.117 243.856 17.208 9.047c10.06 5.289 21.817-3.254 19.896-14.455l-3.286-19.162c-.763-4.448.712-8.987 3.943-12.137l13.922-13.57c8.138-7.933 3.647-21.755-7.6-23.389l-19.239-2.796c-4.466-.649-8.327-3.454-10.324-7.501l-8.604-17.434c-2.515-5.096-7.406-7.644-12.296-7.644v107.465c2.191.001 4.383.526 6.38 1.576z" fill="url(#SVGID_5_)"/><g><path d="m122.326 252.902-17.21-9.05c-3.99-2.1-8.77-2.1-12.76 0l-17.21 9.05c-10.06 5.29-21.82-3.25-19.89-14.45l3.28-19.17c.33-1.9.24-3.83-.21-5.65-.61-2.43-1.88-4.68-3.73-6.48l-13.92-13.57c-4.37-4.26-5.1-10.22-3.1-15.07l61.16 21.15 40.41 13.97c-.45 1.82-.54 3.75-.21 5.65l3.28 19.17c1.93 11.2-9.83 19.74-19.89 14.45z" fill="url(#SVGID_6_)"/><path d="m156.796 193.582-13.92 13.57c-1.85 1.8-3.12 4.05-3.73 6.48-.45 1.82-.54 3.75-.21 5.65l3.28 19.17c1.93 11.2-9.83 19.74-19.89 14.45l-17.21-9.05c-3.99-2.1-8.77-2.1-12.76 0l-17.21 9.05c-10.06 5.29-21.82-3.25-19.89-14.45l3.28-19.17c.33-1.9.24-3.83-.21-5.65l40.41-13.97 61.16-21.15c2 4.85 1.27 10.81-3.1 15.07z" fill="url(#SVGID_7_)"/></g></g><path d="m283.066 183.925-62.624-62.625c-.792-1.524-2.262-2.295-4.233-2.581l-4.183-.668-11.779-11.425c-2.154-4.108-7.679-4.066-9.751.132l-3.67 7.436c-.786 1.594-2.869 3.106-4.627 3.362l-8.01 1.164c-4.683.68-6.136 5.602-2.747 8.904l5.991 6.368c.907 1.237 1.711 3.213 1.447 4.751l-1.368 7.978c-.454 2.647.51 4.935 2.555 6.018l66.8 66.8c5.984 5.984 14.58 8.531 22.867 6.813.208-.043.416-.086.624-.129 19.565-4.042 26.836-28.169 12.708-42.298z" fill="url(#SVGID_8_)"/><g><path d="m200.318 106.758 3.582 7.258c.832 1.685 2.439 2.853 4.298 3.123l8.01 1.164c4.683.68 6.552 6.435 3.164 9.738l-5.796 5.65c-1.346 1.312-1.959 3.201-1.642 5.053l1.368 7.978c.8 4.664-4.095 8.22-8.283 6.018l-7.164-3.767c-1.663-.874-3.65-.874-5.313 0l-7.164 3.767c-4.188 2.202-9.083-1.355-8.283-6.018l1.368-7.978c.318-1.852-.296-3.742-1.642-5.053l-5.796-5.65c-3.388-3.303-1.519-9.057 3.164-9.738l8.01-1.164c1.859-.27 3.467-1.438 4.298-3.123l3.582-7.258c2.094-4.243 8.144-4.243 10.239 0z" fill="url(#SVGID_9_)"/><path d="m197.855 148.973 7.164 3.767c4.188 2.202 9.083-1.355 8.283-6.018l-1.368-7.978c-.318-1.852.296-3.742 1.642-5.053l5.796-5.65c3.388-3.303 1.519-9.057-3.164-9.738l-8.01-1.164c-1.859-.27-3.467-1.438-4.298-3.123l-3.582-7.258c-1.047-2.122-3.083-3.182-5.119-3.182v44.742c.912-.001 1.824.218 2.656.655z" fill="url(#SVGID_10_)"/><g><path d="m205.02 152.739-7.165-3.768c-1.661-.874-3.651-.874-5.312 0l-7.165 3.768c-4.188 2.202-9.084-1.353-8.281-6.016l1.366-7.981c.137-.791.1-1.595-.087-2.352-.254-1.012-.783-1.948-1.553-2.698l-5.795-5.65c-1.819-1.774-2.123-4.255-1.291-6.274l25.463 8.805 16.824 5.816c-.187.758-.225 1.561-.087 2.352l1.366 7.981c.801 4.664-4.095 8.22-8.283 6.017z" fill="url(#SVGID_11_)"/><path d="m219.371 128.042-5.795 5.65c-.77.749-1.299 1.686-1.553 2.698-.187.758-.225 1.561-.087 2.352l1.366 7.981c.803 4.663-4.093 8.218-8.281 6.016l-7.165-3.768c-1.661-.874-3.651-.874-5.312 0l-7.165 3.768c-4.188 2.202-9.084-1.353-8.281-6.016l1.366-7.981c.137-.791.1-1.595-.087-2.352l16.824-5.816 25.463-8.805c.83 2.018.526 4.5-1.293 6.273z" fill="url(#SVGID_12_)"/></g></g><path d="m321.922 246.713-62.625-62.625c-.792-1.524-2.262-2.295-4.233-2.581l-4.183-.668-11.779-11.425c-2.154-4.108-7.679-4.066-9.751.132l-3.582 7.258c-.835 1.691-3.045 3.297-4.911 3.568l-7.814 1.135c-4.683.68-6.136 5.602-2.747 8.904l5.991 6.368c.907 1.237 1.711 3.213 1.447 4.751l-1.368 7.978c-.454 2.647.51 4.935 2.555 6.018l66.8 66.8c5.984 5.984 14.58 8.531 22.867 6.813l.624-.129c19.567-4.041 26.837-28.168 12.709-42.297z" fill="url(#SVGID_13_)"/><g><path d="m239.174 169.546 3.582 7.258c.832 1.685 2.439 2.853 4.298 3.123l8.01 1.164c4.683.68 6.552 6.435 3.164 9.738l-5.796 5.65c-1.346 1.312-1.959 3.201-1.642 5.053l1.368 7.978c.8 4.664-4.095 8.22-8.283 6.018l-7.164-3.767c-1.663-.874-3.65-.874-5.313 0l-7.164 3.767c-4.188 2.202-9.083-1.355-8.283-6.018l1.368-7.978c.318-1.852-.296-3.742-1.642-5.053l-5.796-5.65c-3.388-3.303-1.519-9.057 3.164-9.738l8.01-1.164c1.859-.27 3.467-1.438 4.298-3.123l3.582-7.258c2.094-4.243 8.145-4.243 10.239 0z" fill="url(#SVGID_14_)"/><path d="m236.711 211.761 7.164 3.767c4.188 2.202 9.083-1.355 8.283-6.018l-1.368-7.978c-.318-1.852.296-3.742 1.642-5.053l5.796-5.65c3.388-3.303 1.519-9.057-3.164-9.738l-8.01-1.164c-1.859-.27-3.467-1.438-4.298-3.123l-3.582-7.258c-1.047-2.122-3.083-3.182-5.119-3.182v44.742c.912-.001 1.824.218 2.656.655z" fill="url(#SVGID_15_)"/><g><path d="m243.876 215.527-7.165-3.768c-1.661-.874-3.651-.874-5.312 0l-7.165 3.768c-4.188 2.202-9.084-1.353-8.281-6.016l1.366-7.981c.137-.791.1-1.595-.087-2.352-.254-1.012-.783-1.948-1.553-2.698l-5.795-5.65c-1.819-1.774-2.123-4.255-1.291-6.274l25.463 8.805 16.824 5.816c-.187.758-.225 1.561-.087 2.352l1.366 7.981c.801 4.664-4.095 8.22-8.283 6.017z" fill="url(#SVGID_16_)"/><path d="m258.227 190.83-5.795 5.65c-.77.749-1.299 1.686-1.553 2.698-.187.758-.225 1.561-.087 2.352l1.366 7.981c.803 4.663-4.093 8.218-8.281 6.016l-7.165-3.768c-1.661-.874-3.651-.874-5.312 0l-7.165 3.768c-4.188 2.202-9.084-1.353-8.281-6.016l1.366-7.981c.137-.791.1-1.595-.087-2.352l16.824-5.816 25.463-8.805c.83 2.018.526 4.5-1.293 6.273z" fill="url(#SVGID_17_)"/></g></g><path d="m304.967 315.316-62.624-62.625c-.792-1.524-2.262-2.295-4.233-2.581l-4.183-.668-11.779-11.425c-2.154-4.108-7.679-4.066-9.751.132l-3.67 7.436c-.786 1.594-2.869 3.106-4.627 3.362l-8.01 1.164c-4.683.68-6.136 5.602-2.747 8.904l5.991 6.368c.907 1.237 1.711 3.213 1.447 4.751l-1.368 7.978c-.454 2.647.51 4.935 2.555 6.018l66.8 66.8c5.984 5.984 14.58 8.531 22.867 6.813l.624-.129c19.565-4.042 26.836-28.17 12.708-42.298z" fill="url(#SVGID_18_)"/><g><path d="m222.219 238.149 3.582 7.258c.832 1.685 2.439 2.853 4.298 3.123l8.01 1.164c4.683.68 6.552 6.435 3.164 9.738l-5.796 5.65c-1.346 1.312-1.959 3.201-1.642 5.053l1.368 7.978c.8 4.664-4.095 8.22-8.283 6.018l-7.164-3.767c-1.663-.874-3.65-.874-5.313 0l-7.164 3.767c-4.188 2.202-9.083-1.355-8.283-6.018l1.368-7.978c.318-1.852-.296-3.742-1.642-5.053l-5.796-5.65c-3.388-3.303-1.519-9.057 3.164-9.738l8.01-1.164c1.859-.27 3.467-1.438 4.298-3.123l3.582-7.258c2.094-4.243 8.144-4.243 10.239 0z" fill="url(#SVGID_19_)"/><path d="m219.756 280.364 7.164 3.767c4.188 2.202 9.083-1.355 8.283-6.018l-1.368-7.978c-.318-1.852.296-3.742 1.642-5.053l5.796-5.65c3.388-3.303 1.519-9.057-3.164-9.738l-8.01-1.164c-1.859-.27-3.467-1.438-4.298-3.123l-3.582-7.258c-1.047-2.122-3.083-3.182-5.119-3.182v44.742c.912-.001 1.824.218 2.656.655z" fill="url(#SVGID_20_)"/><g><path d="m226.921 284.13-7.165-3.768c-1.661-.874-3.651-.874-5.312 0l-7.165 3.768c-4.188 2.202-9.084-1.353-8.281-6.016l1.366-7.981c.137-.791.1-1.595-.087-2.352-.254-1.012-.783-1.948-1.553-2.698l-5.795-5.65c-1.819-1.774-2.123-4.255-1.291-6.274l25.463 8.805 16.824 5.816c-.187.758-.225 1.561-.087 2.352l1.366 7.981c.801 4.664-4.095 8.219-8.283 6.017z" fill="url(#SVGID_21_)"/><path d="m241.272 259.433-5.795 5.65c-.77.749-1.299 1.686-1.553 2.698-.187.758-.225 1.561-.087 2.352l1.366 7.981c.803 4.663-4.093 8.218-8.281 6.016l-7.165-3.768c-1.661-.874-3.651-.874-5.312 0l-7.165 3.768c-4.188 2.202-9.084-1.353-8.281-6.016l1.366-7.981c.137-.791.1-1.595-.087-2.352l16.824-5.816 25.463-8.805c.83 2.018.526 4.499-1.293 6.273z" fill="url(#SVGID_22_)"/></g></g><path d="m254.871 375.022-62.624-62.625c-.792-1.524-2.262-2.295-4.233-2.581l-4.183-.668-11.779-11.425c-2.154-4.108-7.679-4.066-9.751.132l-3.582 7.258c-.835 1.691-3.045 3.297-4.911 3.568l-7.814 1.135c-4.683.68-6.136 5.602-2.747 8.904l5.991 6.368c.907 1.237 1.711 3.213 1.447 4.751l-1.368 7.978c-.454 2.647.51 4.935 2.555 6.018l66.8 66.8c5.984 5.984 14.58 8.531 22.867 6.813l.624-.129c19.565-4.041 26.836-28.169 12.708-42.297z" fill="url(#SVGID_23_)"/><g><path d="m172.122 297.855 3.582 7.258c.832 1.685 2.439 2.853 4.298 3.123l8.01 1.164c4.683.68 6.552 6.435 3.164 9.738l-5.796 5.65c-1.346 1.312-1.959 3.201-1.642 5.053l1.368 7.978c.8 4.664-4.095 8.22-8.283 6.018l-7.164-3.767c-1.663-.874-3.65-.874-5.313 0l-7.164 3.767c-4.188 2.202-9.083-1.355-8.283-6.018l1.368-7.978c.318-1.852-.296-3.742-1.642-5.053l-5.796-5.65c-3.388-3.303-1.519-9.057 3.164-9.738l8.01-1.164c1.859-.27 3.467-1.438 4.298-3.123l3.582-7.258c2.095-4.243 8.145-4.243 10.239 0z" fill="url(#SVGID_24_)"/><path d="m169.66 340.07 7.164 3.767c4.188 2.202 9.083-1.355 8.283-6.018l-1.368-7.978c-.318-1.852.296-3.742 1.642-5.053l5.796-5.65c3.388-3.303 1.519-9.057-3.164-9.738l-8.01-1.164c-1.859-.27-3.467-1.438-4.298-3.123l-3.582-7.258c-1.047-2.122-3.083-3.182-5.119-3.182v44.742c.912-.001 1.824.217 2.656.655z" fill="url(#SVGID_25_)"/><g><path d="m176.824 343.836-7.165-3.768c-1.661-.874-3.651-.874-5.312 0l-7.165 3.768c-4.188 2.202-9.084-1.353-8.281-6.016l1.366-7.981c.137-.791.1-1.595-.087-2.352-.254-1.012-.783-1.948-1.553-2.698l-5.795-5.65c-1.819-1.774-2.123-4.255-1.291-6.274l25.463 8.805 16.824 5.816c-.187.758-.225 1.561-.087 2.352l1.366 7.981c.802 4.664-4.094 8.219-8.283 6.017z" fill="url(#SVGID_26_)"/><path d="m191.175 319.139-5.795 5.65c-.77.749-1.299 1.686-1.553 2.698-.187.758-.225 1.561-.087 2.352l1.366 7.981c.803 4.663-4.093 8.218-8.281 6.016l-7.165-3.768c-1.661-.874-3.651-.874-5.312 0l-7.165 3.768c-4.188 2.202-9.084-1.353-8.281-6.016l1.366-7.981c.137-.791.1-1.595-.087-2.352l16.824-5.816 25.463-8.805c.831 2.018.527 4.499-1.293 6.273z" fill="url(#SVGID_27_)"/></g></g></g></svg>