<?xml version="1.0" encoding="UTF-8"?>
<!DOCTYPE svg PUBLIC "-//W3C//DTD SVG 1.1//EN" "http://www.w3.org/Graphics/SVG/1.1/DTD/svg11.dtd">
<!-- Creator: CorelDRAW 2018 (64-Bit) -->
<svg xmlns="http://www.w3.org/2000/svg" xml:space="preserve" width="1080px" height="1080px" version="1.1" style="shape-rendering:geometricPrecision; text-rendering:geometricPrecision; image-rendering:optimizeQuality; fill-rule:evenodd; clip-rule:evenodd"
viewBox="0 0 1080 1080"
 xmlns:xlink="http://www.w3.org/1999/xlink">
 <defs>
  <style type="text/css">
   <![CDATA[
    .fil0 {fill:#24292E}
   ]]>
  </style>
 </defs>
 <g id="图层_x0020_1">
  <metadata id="CorelCorpID_0Corel-Layer"/>
  <path class="fil0" d="M263.191 821.944c2.971,-59.208 3.974,-85.127 31.129,-121.722 26.274,28.323 55.677,50.843 88.909,65.268 7.299,3.169 14.757,5.935 22.379,8.282 -49.156,43.913 -72.723,44.676 -142.417,48.172zm266.002 -396.4c-8.693,5.716 -16.828,12.39 -24.07,19.761 -11.721,11.929 -20.96,25.545 -26.198,39.646l32.244 -31.195c6.65,-6.434 13.983,-19.503 18.024,-28.212zm74.876 -69.643c-12.834,2.066 -23.487,5.123 -32.922,8.968 10.175,2.997 19.308,5.758 32.848,9.811 0.024,-6.259 0.048,-12.519 0.074,-18.779zm73.304 -34.522l9.354 3.954 7.308 -7.179c-10.209,-4.819 -20.967,-9.085 -32.258,-12.755l15.596 15.98zm-35.851 -21.777c-17.763,-4.421 -36.692,-7.46 -56.735,-8.976 12.086,-9.417 38.566,-14.418 57.046,-18.652 -30.071,-12.168 -82.574,-13.793 -125.557,-0.079 -2.387,7.255 -7.144,18.632 -12.94,23.858 -7.641,6.888 -14.758,12.983 -21.07,18.863 48.667,-21.58 100.812,-23.125 151.91,-8.939l7.346 -6.075zm-337.565 -2.412c5.845,38.056 -9.627,99.315 -12.579,107.114 -2.953,7.799 -6.844,16.763 -19.678,48.845 -12.833,32.083 -11.808,93.777 -3.177,113.231 -20.921,-14.72 -46.706,-23.052 -71.286,-14.169 41.35,21.103 64.795,67.911 92.253,103.842 63.07,82.534 140.785,121.102 240.559,93.332 49.296,-13.72 120.96,-109.381 78.708,-146.2 -73.145,41.289 -151.837,-11.579 -154.931,-92.098 -2.254,-58.642 61.604,-118.173 123.59,-125.791 -25.294,-7.572 -33.939,-11.501 -66.439,-6.327 29.242,-21.437 51.281,-38.389 101.269,-43.353 3.071,-5.744 8.035,-9.685 12.946,-13.747 -62.567,-16.205 -153.997,-14.088 -233.345,90.999 23.627,-52.134 40.682,-73.155 99.728,-130.706 15.578,-15.183 12.469,-37.445 10.522,-52.842 -16.614,27.288 -47.002,42.141 -88.416,60.434 -31.404,13.872 -59.88,36.849 -80.849,65.86 -5.258,-22.475 -10.482,-42.714 -28.875,-58.424zm299.094 429.782c7.477,-3.079 14.86,-6.363 22.207,-9.855 -20.961,34.044 -71.604,71.999 -163.111,84.007 97.83,25.754 191.278,11.13 250.136,-49.914 -4.714,8.286 -9.625,17.086 -15.021,24.927 72.196,-41.714 166.171,-164.354 98.843,-282.532 11.372,9.248 20.888,20.489 28.946,35.808 0.53,-56.188 -16.52,-107.179 -48.986,-147.56l-19.019 19.36 35.167 34.322 -26.237 31.726c-12.851,15.539 -21.276,15.568 -37.196,15.622l-22.243 0.088c-0.421,7.437 -3.575,14.354 -9.07,19.401l-0.348 16.269c-0.332,15.538 -9.223,30.806 -24.679,35.455l0.008 0.028c-18.622,5.54 -33.835,16.844 -47.154,30.611 9.363,8.25 15.352,18.332 18.506,29.665 5.108,18.35 2.016,38.965 -6.368,59.171 -8.013,19.313 -20.485,37.828 -34.381,53.401zm-124.184 -211.904l47.128 -45.596c9.606,-9.293 23.617,-32.5 28.739,-49.717 1.09,-3.663 5.77,-6.91 12.244,-7.048l31.244 -0.668 1.722 -5.407c0.945,-2.968 2.214,-3.403 4.871,-3.417l20.122 -0.096c1.025,-0.005 1.825,-0.9 1.828,-1.877l0.175 -44.256c0.034,-8.653 -0.123,-13.096 6.717,-18.752l14.18 -11.727 35.714 36.594 91.285 -89.672 5.709 -22.328c2.23,-8.72 8.392,-8.424 15.158,-2.542l21.864 19.009 19.009 21.864c5.882,6.766 6.178,12.928 -2.542,15.158l-22.328 5.709 -89.672 91.285 36.594 35.714 -11.727 14.18c-5.656,6.84 -10.099,6.683 -18.753,6.717l-44.255 0.174c-0.977,0.004 -1.872,0.804 -1.877,1.829l-0.097 20.122c-0.013,2.658 -0.448,3.926 -3.416,4.871l-5.407 1.722 -0.668 31.244c-0.138,6.475 -3.385,11.154 -7.049,12.244 -17.216,5.122 -40.422,19.133 -49.716,28.739l-24.778 25.611c-28.331,14.062 -56.972,12.274 -82.371,-10.624 -14.597,-13.16 -25.044,-31.614 -28.638,-51.937 -0.437,-2.467 -0.774,-4.844 -1.009,-7.122z"/>
 </g>
</svg>
